HIERARCHY
ROOT Hips
{
	OFFSET 0.000000 0.000000 0.000000
	CHANNELS 6 Xposition Yposition Zposition Xrotation Yrotation Zrotation
	JOINT LeftUpLeg_virtual
	{
		OFFSET 0.000000 0.000000 0.000000
		CHANNELS 3 Xrotation Yrotation Zrotation
		JOINT LeftUpLeg
		{
			OFFSET 10.205400 -3.823500 0.155100
			CHANNELS 3 Xrotation Yrotation Zrotation
			JOINT LeftLeg
			{
				OFFSET 0.708757 -12.982077 0.567790
				CHANNELS 3 Xrotation Yrotation Zrotation
				JOINT LeftFoot
				{
					OFFSET -0.708756 -10.717838 -2.184338
					CHANNELS 3 Xrotation Yrotation Zrotation
					JOINT LeftToeBase
					{
						OFFSET 0.108149 -7.191104 7.560241
						CHANNELS 3 Xrotation Yrotation Zrotation
						JOINT LeftToe_End
						{
							OFFSET 0.070230 0.081724 4.490308
							CHANNELS 3 Xrotation Yrotation Zrotation
							End Site
							{
								OFFSET 0 0 0
							}
						}
					}
				}
			}
		}
	}
	JOINT RightUpLeg_virtual
	{
		OFFSET 0.000000 0.000000 0.000000
		CHANNELS 3 Xrotation Yrotation Zrotation
		JOINT RightUpLeg
		{
			OFFSET -10.205400 -3.823500 0.005500
			CHANNELS 3 Xrotation Yrotation Zrotation
			JOINT RightLeg
			{
				OFFSET -0.708756 -12.982134 0.610632
				CHANNELS 3 Xrotation Yrotation Zrotation
				JOINT RightFoot
				{
					OFFSET 0.708754 -10.717769 -1.945823
					CHANNELS 3 Xrotation Yrotation Zrotation
					JOINT RightToeBase
					{
						OFFSET -0.108140 -7.191069 7.372968
						CHANNELS 3 Xrotation Yrotation Zrotation
						JOINT RightToe_End
						{
							OFFSET -0.070227 0.081735 4.479403
							CHANNELS 3 Xrotation Yrotation Zrotation
							End Site
							{
								OFFSET 0 0 0
							}
						}
					}
				}
			}
		}
	}
	JOINT Spine_virtual
	{
		OFFSET 0.000000 0.000000 0.000000
		CHANNELS 3 Xrotation Yrotation Zrotation
		JOINT Spine
		{
			OFFSET 0.000000 6.876099 0.125700
			CHANNELS 3 Xrotation Yrotation Zrotation
			JOINT Spine1
			{
				OFFSET 0.000000 5.730043 0.104720
				CHANNELS 3 Xrotation Yrotation Zrotation
				JOINT Spine1_split
				{
					OFFSET 0.000000 5.730043 0.104720
					CHANNELS 3 Xrotation Yrotation Zrotation
					JOINT Spine2
					{
						OFFSET 0.000000 5.730043 0.104720
						CHANNELS 3 Xrotation Yrotation Zrotation
						JOINT Neck_virtual
						{
							OFFSET 0.000000 0.000000 0.000000
							CHANNELS 3 Xrotation Yrotation Zrotation
							JOINT Neck
							{
								OFFSET 0.000000 10.314075 0.188496
								CHANNELS 3 Xrotation Yrotation Zrotation
								JOINT Head
								{
									OFFSET 0.000000 7.643700 -2.377400
									CHANNELS 3 Xrotation Yrotation Zrotation
									JOINT HeadTop_End
									{
										OFFSET 0.000000 43.788605 -13.619600
										CHANNELS 3 Xrotation Yrotation Zrotation
										End Site
										{
											OFFSET 0 0 0
										}
									}
								}
							}
						}
						JOINT LeftShoulder_virtual
						{
							OFFSET 0.000000 0.000000 0.000000
							CHANNELS 3 Xrotation Yrotation Zrotation
							JOINT LeftShoulder
							{
								OFFSET 2.196100 4.412489 0.087492
								CHANNELS 3 Xrotation Yrotation Zrotation
								JOINT LeftShoulder_split
								{
									OFFSET 2.196100 4.412489 0.087492
									CHANNELS 3 Xrotation Yrotation Zrotation
									JOINT LeftArm
									{
										OFFSET 8.771219 -2.981674 -0.026999
										CHANNELS 3 Xrotation Yrotation Zrotation
										JOINT LeftForeArm
										{
											OFFSET 8.512804 0.000000 -0.000000
											CHANNELS 3 Xrotation Yrotation Zrotation
											JOINT LeftHand
											{
												OFFSET 18.484802 0.000000 -0.000000
												CHANNELS 3 Xrotation Yrotation Zrotation
												End Site
												{
													OFFSET 0 0 0
												}
											}
										}
									}
								}
							}
						}
						JOINT RightShoulder_virtual
						{
							OFFSET 0.000000 0.000000 0.000000
							CHANNELS 3 Xrotation Yrotation Zrotation
							JOINT RightShoulder
							{
								OFFSET -2.196100 4.412496 0.070690
								CHANNELS 3 Xrotation Yrotation Zrotation
								JOINT RightShoulder_split
								{
									OFFSET -2.196100 4.412496 0.070690
									CHANNELS 3 Xrotation Yrotation Zrotation
									JOINT RightArm
									{
										OFFSET -8.771282 -2.981682 -0.094208
										CHANNELS 3 Xrotation Yrotation Zrotation
										JOINT RightForeArm
										{
											OFFSET -8.494598 0.000000 0.000000
											CHANNELS 3 Xrotation Yrotation Zrotation
											JOINT RightHand
											{
												OFFSET -18.483803 0.000000 0.000001
												CHANNELS 3 Xrotation Yrotation Zrotation
												End Site
												{
													OFFSET 0 0 0
												}
											}
										}
									}
								}
							}
						}
					}
				}
			}
		}
	}
}
MOTION
Frames: 4
Frame Time: 0.03333333
0.498294 34.337757 -0.345815 0.000000 0.000000 0.000000 -4.057980 -6.871622 -2.785961 -14.993985 11.838373 14.980843 26.457356 1.574604 3.210060 -8.270714 1.912505 -8.949607 -2.115160 0.261121 0.027654 0.000000 0.000000 0.000000 -3.845386 -5.246854 -2.954379 4.886406 -8.898453 -1.058613 9.940801 -7.358164 -3.599406 -6.906449 -2.370166 4.867476 -6.419824 -0.039516 0.330452 0.000000 0.000000 0.000000 -4.600425 -6.747339 -3.132786 4.059498 0.430922 2.343733 1.138226 0.191479 1.812827 0.959834 0.240892 -0.099967 0.000000 0.000000 0.000000 0.642605 0.436602 1.776343 5.295218 0.361505 0.051246 -4.796259 1.540754 -0.758842 0.000000 0.000000 0.000000 0.436262 0.489519 1.580791 1.509092 -15.982737 -12.867691 -2.583119 -0.150194 -1.411326 9.338440 -20.532858 -67.749268 -1.799844 -1.174713 0.548835 0.000000 0.000000 0.000000 0.735477 0.461806 1.798424 2.123345 12.604718 15.289775 -0.722415 1.945786 -0.639119 12.826846 28.247154 57.522651 0.595244 10.922252 0.883380 0.000000 0.000000 0.000000 
0.551296 34.339237 -0.342266 0.000000 0.000000 0.000000 -4.049138 -6.984254 -2.781307 -14.970967 11.787295 14.985505 26.594971 1.619398 3.149701 -8.366679 1.941722 -9.019081 -2.130085 0.259489 0.017568 0.000000 0.000000 0.000000 -3.816300 -5.306616 -2.937640 4.898344 -9.011333 -1.061920 9.806420 -7.254219 -3.680313 -6.812922 -2.410635 4.812999 -6.316125 -0.069185 0.383521 0.000000 0.000000 0.000000 -4.602375 -6.868375 -3.176602 4.088895 0.407048 2.360494 1.135343 0.180735 1.821109 0.937779 0.263842 -0.111772 0.000000 0.000000 0.000000 0.639095 0.438534 1.776363 5.305402 0.376413 0.063988 -4.818222 1.616213 -0.773895 0.000000 0.000000 0.000000 0.462373 0.479685 1.598225 1.500296 -16.043092 -12.864678 -2.565712 -0.240192 -1.448584 9.221660 -20.533545 -67.835868 -1.811645 -1.276056 0.556920 0.000000 0.000000 0.000000 0.737727 0.456805 1.819347 2.091685 12.620608 15.360902 -0.807923 1.941608 -0.626276 12.926243 28.243126 57.428504 0.615264 10.703589 0.924575 0.000000 0.000000 0.000000 
0.594483 34.340778 -0.339005 0.000000 0.000000 0.000000 -4.073851 -7.208068 -2.810737 -14.928545 11.754919 15.104041 26.863679 1.725426 3.038869 -8.582678 2.007634 -9.117453 -2.138809 0.261340 -0.001067 0.000000 0.000000 0.000000 -3.831645 -5.431889 -2.954410 4.843161 -9.143363 -1.066054 9.748070 -7.003562 -3.753081 -6.818815 -2.540152 4.724851 -6.210211 -0.091082 0.418734 0.000000 0.000000 0.000000 -4.631097 -7.082323 -3.240960 4.136205 0.386600 2.403649 1.132511 0.166115 1.824671 0.909321 0.283728 -0.124441 0.000000 0.000000 0.000000 0.636706 0.434392 1.773073 5.325848 0.405360 0.071274 -4.867079 1.743159 -0.836213 0.000000 0.000000 0.000000 0.483386 0.467281 1.613998 1.483357 -16.122214 -12.864194 -2.476136 -0.291328 -1.513004 9.136008 -20.435921 -67.926668 -1.796103 -1.371872 0.564004 0.000000 0.000000 0.000000 0.726388 0.447080 1.839687 2.064029 12.700791 15.406175 -0.915201 1.942401 -0.623758 13.088637 28.205712 57.260259 0.580504 10.535737 1.013342 0.000000 0.000000 0.000000 
0.621711 34.341656 -0.337991 0.000000 0.000000 0.000000 -4.130091 -7.503757 -2.864494 -14.863991 11.742469 15.312461 27.185802 1.889552 2.884230 -8.873911 2.100350 -9.234439 -2.131263 0.266770 -0.026700 0.000000 0.000000 0.000000 -3.884592 -5.614025 -2.992934 4.697148 -9.292136 -1.071644 9.826569 -6.608185 -3.781470 -6.836776 -2.740850 4.678759 -6.164501 -0.107693 0.430025 0.000000 0.000000 0.000000 -4.678543 -7.369859 -3.320465 4.196488 0.373250 2.467011 1.131998 0.152140 1.824184 0.894872 0.282526 -0.107216 0.000000 0.000000 0.000000 0.632816 0.427312 1.767106 5.348532 0.442672 0.075543 -4.939151 1.897556 -0.926187 0.000000 0.000000 0.000000 0.500856 0.454959 1.626501 1.454834 -16.214090 -12.866093 -2.362621 -0.255038 -1.593677 9.092951 -20.217978 -67.989971 -1.765661 -1.414632 0.570439 0.000000 0.000000 0.000000 0.710529 0.434593 1.855735 2.040516 12.835755 15.410870 -1.013288 1.934195 -0.622165 13.303975 28.193132 57.042506 0.513808 10.430157 1.118543 0.000000 0.000000 0.000000 
